# xmcd
#
# Track frame offsets:
#	150
#	12256
#	30115
#	44296
#	56853
#	72631
#	88168
#	102652
#	117203
#	130866
#	147315
#	162202
#	176096
#	189692
#	205290
#
# Disc length: 2957 seconds
#
# Revision: 1
# Processed by: cddbd v1.5.2PL0 Copyright (c) Steve Scherf et al.
# Submitted via: audiograbber 1.83.01
#
DISCID=dc0b8b0f
DTITLE=Various Artist - NS20
DYEAR=1900
DGENRE=
TTITLE0=Hayes, Wade - Don't Stop
TTITLE1=Krauss, Alison - Baby, Now That I've Found You
TTITLE2=McEntire, Reba - I Heard Her Crying
TTITLE3=Parnell, Lee Roy - Little Bit Of You, A
TTITLE4=Stone, Doug - I'd Be Better Off In A Pine Box
TTITLE5=Strait, George - Lead On
TTITLE6=McCoy, Neal - They're Playing Our Song
TTITLE7=Clark, Terri - Better Things To Do
TTITLE8=Bellamy Brothers, The - Let Your Love Flow
TTITLE9=Rogers, Kenny and Holly Dunn - Maybe
TTITLE10=Brooks, Garth - Much Too Young To Feel This Damn Old
TTITLE11=Mavericks, The - Oh What A Thrill
TTITLE12=Restless Heart - Mending Fences
TTITLE13=Wariner, Steve - If I Didn't Love Her
TTITLE14=McEntire, Reba - And Still
EXTD=Nashville Sounds Vol. 20 Karaoke
EXTT0=
EXTT1=
EXTT2=
EXTT3=
EXTT4=
EXTT5=
EXTT6=
EXTT7=
EXTT8=
EXTT9=
EXTT10=
EXTT11=
EXTT12=
EXTT13=
EXTT14=
PLAYORDER=
